<?xml version="1.0" encoding="UTF-8" standalone="no"?>
<!-- Created with Inkscape (http://www.inkscape.org/) -->

<svg
   width="124.32388mm"
   height="145.81952mm"
   viewBox="0 0 124.32388 145.81952"
   version="1.1"
   id="svg1"
   xml:space="preserve"
   xmlns="http://www.w3.org/2000/svg"
   xmlns:svg="http://www.w3.org/2000/svg"><defs
     id="defs1" /><g
     id="layer1"
     transform="translate(-48.366281,-64.875837)"><path
       style="fill:#000000"
       d="m 109.59973,210.42383 c -0.21958,-0.24263 -0.33946,-0.73345 -0.33946,-1.38988 0,-8.32141 -4.18151,-17.79054 -12.308778,-27.87351 -2.38638,-2.96062 -2.8039,-3.35945 -2.57663,-2.46133 0.82833,3.27341 0.91289,4.59353 0.32813,5.12273 -1.90744,1.72621 -9.25489,-5.5712 -13.04755,-12.95869 -0.73969,-1.44079 -1.3973,-2.6669 -1.46136,-2.7247 -0.21356,-0.19268 0.14781,2.89537 0.55962,4.78223 0.74216,3.40044 -0.21466,4.41286 -2.68136,2.83717 -5.81212,-3.71268 -9.284016,-14.139 -7.899626,-23.72312 0.14665,-1.01529 0.23931,-1.87801 0.2059,-1.91715 -0.20828,-0.24399 -1.93535,4.12825 -1.93535,4.89952 0,2.28624 -2.86754,1.49534 -3.64131,-1.00431 -0.509879,-1.64713 -0.512699,-8.3704 -0.004,-10.22068 1.02066,-3.7146 3.07365,-7.42826 5.59166,-10.11478 0.792996,-0.84608 2.024876,-2.2075 2.737496,-3.02538 l 1.29568,-1.48705 h -1.85142 c -4.217416,0 -7.624146,-1.80285 -9.007105,-4.76659 -1.07089,-2.29496 -0.45576,-3.01739 2.243869,-2.6353 6.473476,0.91622 11.749526,-0.79101 17.640526,-5.70814 1.86288,-1.55491 2.43679,-2.14234 3.31059,-3.38856 0.4547,-0.6485 1.12324,-0.67721 3.23939,-0.13913 5.06343,1.28751 11.672828,0.26469 11.672828,-1.8064 v -0.55405 l -1.48705,0.26097 c -3.282208,0.576 -8.311198,0.23296 -11.300958,-0.77086 -3.39776,-1.14081 -8.20988,-5.69604 -10.26837,-9.720203 -1.43353,-2.802419 -1.13405,-3.053299 3.75306,-3.143909 10.67201,-0.19788 18.021378,2.113939 22.962448,7.223082 1.9907,2.0584 3.40888,2.21061 2.45386,0.26335 -3.11622,-6.353842 -13.734318,-10.393282 -27.319828,-10.393282 -7.31971,0 -12.431696,-1.13839 -18.408035,-4.09928 -9.3063,-4.61069 -16.50464,-16.149464 -12.61021,-20.213912 1.79626,-1.874686 4.20263,-1.231596 5.87009,1.568758 1.93189,3.244424 3.80835,5.103107 5.48671,5.434712 0.94336,0.186386 0.96643,-0.477155 0.13627,-3.919227 -0.82204,-3.408414 -0.62725,-5.102914 0.72728,-6.326645 1.96803,-1.777999 4.612369,-0.823051 5.646439,2.039095 1.24434,3.444149 2.37795,5.092704 4.071826,5.921441 1.94668,0.952423 2.38255,0.29319 2.23147,-3.375044 -0.12508,-3.037136 0.006,-3.727399 0.89165,-4.708103 2.29058,-2.535399 5.24789,-1.322667 6.21855,2.550098 1.6293,6.50065 4.91071,6.675417 7.01025,0.373361 1.28824,-3.866847 3.76313,-5.161269 5.85967,-3.064731 l 0.89601,0.896009 -1.4e-4,1.616596 c -1e-4,1.063236 -0.16984,2.248478 -0.4959,3.462591 -0.8511,3.169204 -0.86118,4.614989 -0.0322,4.614989 0.5712,0 3.96932,-5.244349 4.92991,-7.608372 1.278638,-3.146769 4.109948,-4.300011 5.910348,-2.407395 l 0.81343,0.855096 -0.0964,1.452399 c -0.10118,1.524821 -1.3699,4.715657 -2.61637,6.580163 -5.269108,7.881671 -2.5952,15.019171 6.76546,18.059141 2.59786,0.84368 9.34686,3.6892 10.87086,4.58338 0.73327,0.430229 2.34852,1.319539 3.58944,1.976232 2.98169,1.57792 6.55969,3.91198 8.32194,5.42869 2.64226,2.27412 4.52377,2.80989 16.599,4.72664 15.65333,2.48471 19.41847,6.08837 22.34365,21.38536 0.98664,5.15958 -0.18608,7.18375 -4.6081,7.95381 -3.84253,0.66915 -5.68287,-0.0486 -9.39614,-3.66429 -3.9657,-3.86156 -6.34461,-5.04107 -10.18541,-5.05016 -4.56341,-0.0108 -5.27891,1.33914 -0.81822,1.54373 4.17625,0.19154 5.15867,0.66168 8.90406,4.26101 2.66044,2.55669 4.17413,3.53588 6.08711,3.93771 2.74598,0.5768 2.38538,1.96184 -0.94485,3.62904 -4.51509,2.26038 -8.54649,1.60231 -12.54191,-2.04729 -2.74346,-2.50601 -4.15354,-2.98104 -7.17961,-2.41872 -9.91216,1.84193 -14.51302,7.69947 -13.10423,16.68352 0.39318,2.50741 0.23972,3.00499 -0.92678,3.00499 -1.60434,0 -5.50317,-4.41182 -6.1585,-6.9688 -0.25037,-0.97688 -0.26631,-0.99178 -0.94314,-0.88194 -1.00294,0.16275 -1.41913,-0.3168 -1.71584,-1.97707 -0.35567,-1.99022 -0.15572,-5.92371 0.38622,-7.59779 0.52003,-1.60641 0.46831,-1.68343 -0.61611,-0.91745 -2.02804,1.43251 -2.69261,3.29543 -2.70219,7.57474 -0.0177,7.90157 5.91669,14.54613 14.56567,16.30875 2.29746,0.46822 2.75125,1.63322 1.22909,3.15539 -1.51207,1.51207 -2.7335,1.86737 -6.41951,1.86737 h -3.10557 l 0.37369,0.52454 c 3.29346,4.62308 4.25559,14.26004 2.1704,21.73943 -1.01565,3.64302 -3.01496,7.68165 -5.94869,12.01643 -2.79767,4.13372 -7.0769,7.29676 -8.1971,6.05896 z M 128.9509,100.72841 c -0.73328,-0.51028 -2.44082,-1.478193 -3.79455,-2.150913 -5.08143,-2.525149 -5.3352,-3.138639 -2.15366,-5.206509 4.64825,-3.02119 4.52575,-6.93077 -0.47763,-15.243339 -3.60253,-5.98521 -4.32302,-8.913503 -2.63079,-10.692405 1.79597,-1.887961 4.08388,-0.948974 5.83534,2.394901 2.31308,4.416104 4.81533,4.676766 4.26956,0.444765 -0.38424,-2.979492 -0.35091,-3.189426 0.66818,-4.208509 2.05288,-2.052886 4.40609,-0.927836 5.77036,2.758759 2.29866,6.211572 4.99367,6.272842 6.2551,0.142209 0.7876,-3.827814 3.47877,-5.223474 5.81318,-3.014764 1.17085,1.107791 1.26466,1.489263 1.21081,4.923524 -0.0534,3.405423 0.0664,3.934461 0.89067,3.934461 1.65653,0 3.02773,-1.70147 4.38545,-5.441756 1.40408,-3.867966 3.44725,-4.75376 5.71928,-2.479519 l 0.95384,0.954773 -0.0174,2.20131 c -0.0154,1.947808 -0.104,2.468965 -0.76916,4.52553 -1.12798,3.487495 -0.98148,3.931392 0.90309,2.736239 1.42425,-0.903233 2.44322,-2.224413 3.96923,-5.146399 1.7214,-3.296124 2.15003,-3.708607 3.85376,-3.708607 1.19808,0 1.27442,0.03251 2.16326,0.921349 l 0.92135,0.921349 -0.0991,2.411698 c -0.19026,4.632254 -2.29605,8.510956 -7.52714,13.864391 -4.49609,4.60125 -9.92032,7.39077 -20.01186,10.29149 -7.6131,2.188309 -9.21188,2.720189 -11.4147,3.797422 -2.57968,1.26153 -2.9641,1.26715 -4.68648,0.0685 z m -14.40759,-7.678602 c -0.19663,-0.11454 -1.40506,-0.42549 -2.68539,-0.69099 -1.28034,-0.2655 -2.68856,-0.66413 -3.12937,-0.88585 -0.44082,-0.22172 -1.14185,-0.51317 -1.55784,-0.64767 -2.2672,-0.73303 -2.32027,-1.49466 -0.37178,-5.33475 2.48064,-4.88885 4.02356,-5.799302 6.25365,-3.69018 3.98218,3.76618 5.26521,13.44821 1.49073,11.24944 z"
       id="path2" /></g></svg>
