<?xml version="1.0" standalone="no"?>
<!DOCTYPE svg PUBLIC "-//W3C//DTD SVG 20010904//EN"
 "http://www.w3.org/TR/2001/REC-SVG-20010904/DTD/svg10.dtd">
<svg version="1.0" xmlns="http://www.w3.org/2000/svg"
 width="400.000000pt" height="400.000000pt" viewBox="0 0 400.000000 400.000000"
 preserveAspectRatio="xMidYMid meet">
<metadata>
Created by potrace 1.16, written by Peter Selinger 2001-2019
</metadata>
<g transform="translate(0.000000,400.000000) scale(0.100000,-0.100000)"
fill="#000000" stroke="none">
<path d="M1820 3553 c-72 -9 -267 -56 -335 -80 -436 -157 -815 -541 -959 -974
-65 -193 -80 -290 -80 -509 0 -142 5 -220 17 -287 63 -336 193 -580 442 -828
393 -392 967 -543 1520 -398 274 71 519 215 717 421 260 270 397 576 429 963
33 391 -84 784 -325 1093 -81 103 -240 256 -336 322 -173 119 -366 204 -565
249 -103 24 -146 28 -305 30 -102 2 -201 1 -220 -2z m455 -258 c285 -64 504
-184 706 -385 163 -163 252 -305 320 -513 43 -132 59 -240 59 -402 0 -291 -69
-521 -226 -757 -326 -490 -969 -705 -1544 -517 -716 235 -1097 967 -873 1678
32 103 105 248 169 339 68 95 220 249 311 314 191 137 372 209 663 262 54 10
347 -3 415 -19z"/>
<path d="M1920 3249 c-367 -25 -732 -222 -956 -517 -86 -114 -175 -297 -211
-432 -25 -98 -27 -119 -28 -305 0 -213 4 -239 56 -401 133 -410 487 -729 931
-840 78 -19 140 -27 255 -31 201 -8 219 1 75 38 -117 30 -249 85 -324 137 -24
15 -80 53 -125 83 l-83 54 0 357 0 358 85 0 85 0 0 -299 0 -299 53 -48 c233
-211 572 -272 870 -156 79 31 224 121 266 166 22 23 23 26 6 32 -10 4 -25 2
-34 -4 -109 -77 -208 -113 -331 -119 -177 -9 -320 46 -445 172 -83 84 -127
154 -168 272 -27 77 -31 105 -35 219 -4 111 -1 143 18 215 33 130 90 230 184
325 121 121 246 174 411 174 156 0 277 -51 391 -165 71 -72 127 -164 140 -232
6 -31 5 -32 -61 -62 -38 -17 -69 -30 -70 -29 -1 2 -17 34 -35 71 -41 85 -119
165 -197 203 -53 26 -68 29 -163 29 -98 0 -110 -2 -171 -32 -175 -86 -278
-282 -266 -503 13 -242 158 -432 363 -475 165 -35 332 39 425 188 18 29 34 53
35 55 2 4 124 -57 141 -70 10 -8 8 -19 -7 -48 -16 -31 -17 -43 -8 -71 8 -27 7
-43 -6 -72 -14 -36 -14 -37 4 -27 28 15 122 154 174 256 86 172 125 329 133
529 13 354 -109 667 -357 915 -274 275 -640 414 -1020 389z m373 -273 c378
-73 699 -363 792 -716 10 -39 18 -118 21 -195 l4 -130 -20 73 c-45 167 -148
338 -291 483 -154 155 -308 249 -488 296 -123 32 -310 37 -411 10 -150 -40
-304 -139 -396 -255 -84 -106 -164 -306 -164 -409 l0 -34 97 3 96 3 14 70 c39
194 186 361 368 418 139 43 312 25 454 -48 94 -48 94 -51 -2 -59 -238 -19
-424 -123 -546 -305 -36 -54 -92 -177 -105 -233 l-6 -28 -386 0 -385 0 3 93 3
92 104 0 104 0 18 107 c66 390 342 678 730 763 85 18 298 19 392 1z m-955
-1495 c1 -146 -1 -268 -6 -273 -12 -12 -105 115 -141 192 -30 63 -31 69 -31
208 l0 143 88 -3 87 -3 3 -264z"/>
</g>
</svg>
